<svg xmlns="http://www.w3.org/2000/svg" width="162" height="162" viewBox="0 0 162 162">
  <g id="Grupo_478" data-name="Grupo 478" transform="translate(5041 524)">
    <g id="ic_launcher_foreground" transform="translate(-5148.545 -631.545)">
      <rect id="Rectángulo_194" data-name="Rectángulo 194" width="162" height="162" transform="translate(107.545 107.545)" fill="none"/>
    </g>
    <path id="ic_launcher_foreground-2" data-name="ic_launcher_foreground" d="M69.761,33.036v0L38.982,2.257l-.431-.378A6.725,6.725,0,0,0,33.869,0H6.773A6.769,6.769,0,0,0,0,6.773V33.862a6.75,6.75,0,0,0,1.888,4.692l.369.418L33.05,69.755a6.758,6.758,0,0,0,9.767-.264L69.885,42.426V42.4a6.746,6.746,0,0,0-.123-9.365M9.039,14.2A5.162,5.162,0,1,1,14.2,9.038,5.162,5.162,0,0,1,9.039,14.2M61.567,50.739H54.055V34.367a9.21,9.21,0,0,0-1.414-5.324,4.868,4.868,0,0,0-4.308-2.061,5.9,5.9,0,0,0-4.772,2.184,8.067,8.067,0,0,0-1.816,5.324V50.739H34.235V34.491a8.914,8.914,0,0,0-1.629-5.416,5.375,5.375,0,0,0-4.587-2.216A5.673,5.673,0,0,0,23.308,29.1a8.488,8.488,0,0,0-1.757,5.386V50.739H14.042v-30.4H21l.552,3.691a6.859,6.859,0,0,1,3.328-3.168,11.1,11.1,0,0,1,4.679-1.016q6.646,0,8.987,5.662A11.3,11.3,0,0,1,48.7,19.965q6.411,0,9.637,3.723t3.233,10.679Z" transform="translate(-4995.652 -478.652)" fill="#fff"/>
  </g>
</svg>
